<?xml version="1.0"?>
<svg xmlns="http://www.w3.org/2000/svg" xmlns:xlink="http://www.w3.org/1999/xlink" xmlns:svgjs="http://svgjs.com/svgjs" version="1.1" width="512" height="512" x="0" y="0" viewBox="0 0 512 512" style="enable-background:new 0 0 512 512" xml:space="preserve" class=""><g><g xmlns="http://www.w3.org/2000/svg" fill="#020202"><path d="m166 50c0 5.523438-4.476562 10-10 10s-10-4.476562-10-10 4.476562-10 10-10 10 4.476562 10 10zm0 0" fill="#efd9ce" data-original="#020202" style=""/><path d="m126 50c0 5.523438-4.476562 10-10 10s-10-4.476562-10-10 4.476562-10 10-10 10 4.476562 10 10zm0 0" fill="#efd9ce" data-original="#020202" style=""/><path d="m86 50c0 5.523438-4.476562 10-10 10s-10-4.476562-10-10 4.476562-10 10-10 10 4.476562 10 10zm0 0" fill="#efd9ce" data-original="#020202" style=""/><path d="m436 140h-360c-5.523438 0-10 4.476562-10 10v60c0 5.523438 4.476562 10 10 10h360c5.523438 0 10-4.476562 10-10v-60c0-5.523438-4.476562-10-10-10zm-10 60h-340v-40h340zm0 0" fill="#efd9ce" data-original="#020202" style=""/><path d="m256 260h-180c-5.523438 0-10 4.476562-10 10v120c0 5.523438 4.476562 10 10 10h180c5.523438 0 10-4.476562 10-10v-120c0-5.523438-4.476562-10-10-10zm-10 120h-160v-100h160zm0 0" fill="#efd9ce" data-original="#020202" style=""/><path d="m436 260h-120c-5.523438 0-10 4.476562-10 10v120c0 5.523438 4.476562 10 10 10h120c5.523438 0 10-4.476562 10-10v-120c0-5.523438-4.476562-10-10-10zm-10 120h-100v-100h100zm0 0" fill="#efd9ce" data-original="#020202" style=""/><path d="m266 10c0 5.523438-4.476562 10-10 10s-10-4.476562-10-10 4.476562-10 10-10 10 4.476562 10 10zm0 0" fill="#efd9ce" data-original="#020202" style=""/><path d="m482 0h-181c-5.523438 0-10 4.476562-10 10s4.476562 10 10 10h181c5.515625 0 10 4.484375 10 10v50h-472v-50c0-5.515625 4.484375-10 10-10h181c5.523438 0 10-4.476562 10-10s-4.476562-10-10-10h-181c-16.542969 0-30 13.457031-30 30v400c0 16.542969 13.457031 30 30 30h452c16.542969 0 30-13.457031 30-30v-400c0-16.542969-13.457031-30-30-30zm0 440h-452c-5.515625 0-10-4.484375-10-10v-330h472v330c0 5.515625-4.484375 10-10 10zm0 0" fill="#efd9ce" data-original="#020202" style=""/></g></g></svg>
