<svg width="93" height="93" viewBox="0 0 93 93" fill="none" xmlns="http://www.w3.org/2000/svg">
<circle cx="46.3409" cy="46.1236" r="45.7706" stroke="black" stroke-opacity="0.59" stroke-width="0.5"/>
<path fill-rule="evenodd" clip-rule="evenodd" d="M59.7016 21.6288H32.98C30.5203 21.6288 28.5264 23.6227 28.5264 26.0824V66.1649C28.5264 68.6245 30.5203 70.6185 32.98 70.6185H59.7016C62.1613 70.6185 64.1552 68.6245 64.1552 66.1649V26.0824C64.1552 23.6227 62.1613 21.6288 59.7016 21.6288ZM32.9804 34.9896V26.0824H59.702V34.9896H32.9804ZM32.9804 39.4432V66.1648H59.702V39.4432H32.9804ZM41.8876 61.7112H37.434V57.2576H41.8876V61.7112ZM44.1144 61.7112H48.568V57.2576H44.1144V61.7112ZM55.2484 61.7112H50.7948V55.0308V52.804V50.5772H55.2484V52.804V55.0308V61.7112ZM37.434 55.0308H41.8876V50.5772H37.434V55.0308ZM48.568 55.0308H44.1144V50.5772H48.568V55.0308ZM41.8876 48.3504H37.434V43.8968H41.8876V48.3504ZM44.1144 48.3504H48.568V43.8968H44.1144V48.3504ZM55.2484 48.3504H50.7948V43.8968H55.2484V48.3504Z" fill="#EFD9CE"/>
</svg>
