<svg width="2212" height="1494" viewBox="0 0 2212 1494" fill="none" xmlns="http://www.w3.org/2000/svg">
<path d="M544.084 1385.9H542.275V1383.94H541.541V1385.9H539.732V1386.69H541.541V1388.65H542.275V1386.69H544.084V1385.9Z" fill="white" fill-opacity="0.75"/>
<path d="M1159.59 1066.68C1160.48 1066.68 1161.2 1065.9 1161.2 1064.94C1161.2 1063.98 1160.48 1063.2 1159.59 1063.2C1158.7 1063.2 1157.98 1063.98 1157.98 1064.94C1157.98 1065.9 1158.7 1066.68 1159.59 1066.68Z" fill="white" fill-opacity="0.75"/>
<path d="M642.897 212.808C644.273 212.808 645.388 211.601 645.388 210.113C645.388 208.625 644.273 207.419 642.897 207.419C641.522 207.419 640.407 208.625 640.407 210.113C640.407 211.601 641.522 212.808 642.897 212.808Z" fill="white" fill-opacity="0.75"/>
<path d="M866.687 622.403C868.062 622.403 869.177 621.197 869.177 619.709C869.177 618.221 868.062 617.015 866.687 617.015C865.311 617.015 864.196 618.221 864.196 619.709C864.196 621.197 865.311 622.403 866.687 622.403Z" fill="white" fill-opacity="0.75"/>
<path d="M591.632 1004.59C593.007 1004.59 594.122 1003.38 594.122 1001.89C594.122 1000.41 593.007 999.2 591.632 999.2C590.257 999.2 589.142 1000.41 589.142 1001.89C589.142 1003.38 590.257 1004.59 591.632 1004.59Z" fill="white" fill-opacity="0.75"/>
<path d="M1101.2 402.242C1102.58 402.242 1103.69 401.036 1103.69 399.548C1103.69 398.06 1102.58 396.853 1101.2 396.853C1099.83 396.853 1098.71 398.06 1098.71 399.548C1098.71 401.036 1099.83 402.242 1101.2 402.242Z" fill="white" fill-opacity="0.75"/>
<path d="M1872.14 803.735C1873.52 803.735 1874.63 802.529 1874.63 801.041C1874.63 799.553 1873.52 798.346 1872.14 798.346C1870.77 798.346 1869.65 799.553 1869.65 801.041C1869.65 802.529 1870.77 803.735 1872.14 803.735Z" fill="white" fill-opacity="0.75"/>
<path d="M1761.72 364.273C1763.1 364.273 1764.21 363.067 1764.21 361.578C1764.21 360.09 1763.1 358.884 1761.72 358.884C1760.35 358.884 1759.23 360.09 1759.23 361.578C1759.23 363.067 1760.35 364.273 1761.72 364.273Z" fill="white" fill-opacity="0.75"/>
<path d="M586.586 1173.86C587.961 1173.86 589.076 1172.66 589.076 1171.17C589.076 1169.68 587.961 1168.48 586.586 1168.48C585.211 1168.48 584.096 1169.68 584.096 1171.17C584.096 1172.66 585.211 1173.86 586.586 1173.86Z" fill="white" fill-opacity="0.75"/>
<path d="M1075.57 369.176C1076.95 369.176 1078.06 367.97 1078.06 366.481C1078.06 364.993 1076.95 363.787 1075.57 363.787C1074.2 363.787 1073.08 364.993 1073.08 366.481C1073.08 367.97 1074.2 369.176 1075.57 369.176Z" fill="white" fill-opacity="0.75"/>
<path d="M1143.59 672.536C1144.97 672.536 1146.08 671.33 1146.08 669.842C1146.08 668.354 1144.97 667.147 1143.59 667.147C1142.22 667.147 1141.1 668.354 1141.1 669.842C1141.1 671.33 1142.22 672.536 1143.59 672.536Z" fill="white" fill-opacity="0.75"/>
<path d="M1583.29 650.137C1584.66 650.137 1585.78 648.93 1585.78 647.442C1585.78 645.954 1584.66 644.748 1583.29 644.748C1581.91 644.748 1580.79 645.954 1580.79 647.442C1580.79 648.93 1581.91 650.137 1583.29 650.137Z" fill="white" fill-opacity="0.75"/>
<path d="M798.764 1018.68C799.652 1018.68 800.372 1017.9 800.372 1016.94C800.372 1015.98 799.652 1015.2 798.764 1015.2C797.876 1015.2 797.156 1015.98 797.156 1016.94C797.156 1017.9 797.876 1018.68 798.764 1018.68Z" fill="white" fill-opacity="0.75"/>
<path d="M1087.4 1334.93C1088.78 1334.93 1089.89 1333.72 1089.89 1332.24C1089.89 1330.75 1088.78 1329.54 1087.4 1329.54C1086.03 1329.54 1084.91 1330.75 1084.91 1332.24C1084.91 1333.72 1086.03 1334.93 1087.4 1334.93Z" fill="white" fill-opacity="0.75"/>
<path d="M547.774 558.955C550.235 558.955 552.23 556.796 552.23 554.133C552.23 551.471 550.235 549.312 547.774 549.312C545.313 549.312 543.317 551.471 543.317 554.133C543.317 556.796 545.313 558.955 547.774 558.955Z" fill="white" fill-opacity="0.75"/>
<path d="M685.284 89.0632C687.745 89.0632 689.74 86.9045 689.74 84.2416C689.74 81.5787 687.745 79.4199 685.284 79.4199C682.822 79.4199 680.827 81.5787 680.827 84.2416C680.827 86.9045 682.822 89.0632 685.284 89.0632Z" fill="white" fill-opacity="0.75"/>
<path d="M568.952 170.129C571.414 170.129 573.409 167.971 573.409 165.308C573.409 162.645 571.414 160.486 568.952 160.486C566.491 160.486 564.496 162.645 564.496 165.308C564.496 167.971 566.491 170.129 568.952 170.129Z" fill="white" fill-opacity="0.75"/>
<path d="M677.969 861.251C679.344 861.251 680.459 860.045 680.459 858.557C680.459 857.069 679.344 855.862 677.969 855.862C676.593 855.862 675.479 857.069 675.479 858.557C675.479 860.045 676.593 861.251 677.969 861.251Z" fill="white" fill-opacity="0.75"/>
<path d="M1088.88 338.996C1090.25 338.996 1091.37 337.79 1091.37 336.302C1091.37 334.814 1090.25 333.607 1088.88 333.607C1087.5 333.607 1086.39 334.814 1086.39 336.302C1086.39 337.79 1087.5 338.996 1088.88 338.996Z" fill="white" fill-opacity="0.75"/>
<path d="M1288.75 606.935C1290.13 606.935 1291.24 605.729 1291.24 604.24C1291.24 602.752 1290.13 601.546 1288.75 601.546C1287.38 601.546 1286.26 602.752 1286.26 604.24C1286.26 605.729 1287.38 606.935 1288.75 606.935Z" fill="white" fill-opacity="0.75"/>
<path d="M626.417 401.071C628.879 401.071 630.874 398.913 630.874 396.25C630.874 393.587 628.879 391.428 626.417 391.428C623.956 391.428 621.961 393.587 621.961 396.25C621.961 398.913 623.956 401.071 626.417 401.071Z" fill="white" fill-opacity="0.75"/>
<path d="M1143.7 246.928C1146.17 246.928 1148.16 244.77 1148.16 242.107C1148.16 239.444 1146.17 237.285 1143.7 237.285C1141.24 237.285 1139.25 239.444 1139.25 242.107C1139.25 244.77 1141.24 246.928 1143.7 246.928Z" fill="white" fill-opacity="0.75"/>
<path d="M856.822 116.796C859.283 116.796 861.278 114.638 861.278 111.975C861.278 109.312 859.283 107.153 856.822 107.153C854.36 107.153 852.365 109.312 852.365 111.975C852.365 114.638 854.36 116.796 856.822 116.796Z" fill="white" fill-opacity="0.75"/>
<path d="M1415.49 1206.25C1417.95 1206.25 1419.95 1204.09 1419.95 1201.43C1419.95 1198.77 1417.95 1196.61 1415.49 1196.61C1413.03 1196.61 1411.04 1198.77 1411.04 1201.43C1411.04 1204.09 1413.03 1206.25 1415.49 1206.25Z" fill="white" fill-opacity="0.75"/>
<path d="M1182.15 126.396C1184.61 126.396 1186.61 124.237 1186.61 121.575C1186.61 118.912 1184.61 116.753 1182.15 116.753C1179.69 116.753 1177.7 118.912 1177.7 121.575C1177.7 124.237 1179.69 126.396 1182.15 126.396Z" fill="white" fill-opacity="0.75"/>
<path d="M866.679 624.524C869.14 624.524 871.135 622.366 871.135 619.703C871.135 617.04 869.14 614.881 866.679 614.881C864.218 614.881 862.223 617.04 862.223 619.703C862.223 622.366 864.218 624.524 866.679 624.524Z" fill="white" fill-opacity="0.75"/>
<path d="M866.679 624.524C869.14 624.524 871.135 622.366 871.135 619.703C871.135 617.04 869.14 614.881 866.679 614.881C864.218 614.881 862.223 617.04 862.223 619.703C862.223 622.366 864.218 624.524 866.679 624.524Z" fill="white" fill-opacity="0.75"/>
<path d="M503.933 722.484H499.966V718.191H498.35V722.484H494.383V724.233H498.35V728.515H499.966V724.233H503.933V722.484Z" fill="white" fill-opacity="0.75"/>
<path d="M603.548 720.593H599.581V716.301H597.964V720.593H593.997V722.342H597.964V726.624H599.581V722.342H603.548V720.593Z" fill="white" fill-opacity="0.75"/>
<path d="M745.977 807.571H742.01V803.278H740.394V807.571H736.427V809.32H740.394V813.602H742.01V809.32H745.977V807.571Z" fill="white" fill-opacity="0.75"/>
<path d="M944.353 286.175H942.545V284.218H941.811V286.175H940.002V286.969H941.811V288.926H942.545V286.969H944.353V286.175Z" fill="white" fill-opacity="0.75"/>
<path d="M1204.1 316.041H1202.29V314.084H1201.55V316.041H1199.75V316.836H1201.55V318.793H1202.29V316.836H1204.1V316.041Z" fill="white" fill-opacity="0.75"/>
<path d="M1050.09 583.035H1048.28V581.078H1047.54V583.035H1045.73V583.829H1047.54V585.786H1048.28V583.829H1050.09V583.035Z" fill="white" fill-opacity="0.75"/>
<path d="M505.709 817.498H503.9V815.541H503.166V817.498H501.357V818.292H503.166V820.249H503.9V818.292H505.709V817.498Z" fill="white" fill-opacity="0.75"/>
<path d="M739.012 309.81H737.203V307.853H736.469V309.81H734.66V310.604H736.469V312.561H737.203V310.604H739.012V309.81Z" fill="white" fill-opacity="0.75"/>
<path d="M628.916 592.489H627.107V590.532H626.373V592.489H624.564V593.283H626.373V595.24H627.107V593.283H628.916V592.489Z" fill="white" fill-opacity="0.75"/>
<path d="M652.51 511.183H650.701V509.226H649.967V511.183H648.158V511.977H649.967V513.934H650.701V511.977H652.51V511.183Z" fill="white" fill-opacity="0.75"/>
<path d="M903.033 477.316C903.858 477.316 904.527 476.592 904.527 475.699C904.527 474.807 903.858 474.083 903.033 474.083C902.208 474.083 901.539 474.807 901.539 475.699C901.539 476.592 902.208 477.316 903.033 477.316Z" fill="black" fill-opacity="0.25"/>
<path d="M871.52 451.786C874.541 451.786 876.99 449.137 876.99 445.868C876.99 442.599 874.541 439.95 871.52 439.95C868.499 439.95 866.05 442.599 866.05 445.868C866.05 449.137 868.499 451.786 871.52 451.786Z" fill="black" fill-opacity="0.25"/>
<path d="M877.635 494.009C875.196 497.766 872.007 500.881 868.304 503.123C864.601 505.365 860.48 506.677 856.245 506.961C856.245 506.536 856.192 506.111 856.192 505.676C856.195 502.983 856.888 500.345 858.195 498.053C859.502 495.762 861.371 493.909 863.594 492.699C865.817 491.49 868.307 490.972 870.786 491.203C873.265 491.434 875.636 492.406 877.635 494.009V494.009Z" fill="black" fill-opacity="0.25"/>
<path d="M619.267 655.283C619.842 655.283 620.307 654.78 620.307 654.158C620.307 653.537 619.842 653.033 619.267 653.033C618.693 653.033 618.228 653.537 618.228 654.158C618.228 654.78 618.693 655.283 619.267 655.283Z" fill="black" fill-opacity="0.25"/>
<path d="M1610.43 1349.49C1611.8 1349.49 1612.92 1348.29 1612.92 1346.8C1612.92 1345.31 1611.8 1344.1 1610.43 1344.1C1609.05 1344.1 1607.94 1345.31 1607.94 1346.8C1607.94 1348.29 1609.05 1349.49 1610.43 1349.49Z" fill="white" fill-opacity="0.75"/>
<path d="M1536.01 1208.83H1532.04V1204.54H1530.42V1208.83H1526.46V1210.58H1530.42V1214.87H1532.04V1210.58H1536.01V1208.83Z" fill="white" fill-opacity="0.75"/>
<path d="M1683.62 1191.17H1679.66V1186.88H1678.04V1191.17H1674.07V1192.92H1678.04V1197.2H1679.66V1192.92H1683.62V1191.17Z" fill="white" fill-opacity="0.75"/>
<path d="M1551.73 1143.52C1552.3 1143.52 1552.77 1143.02 1552.77 1142.4C1552.77 1141.78 1552.3 1141.27 1551.73 1141.27C1551.15 1141.27 1550.69 1141.78 1550.69 1142.4C1550.69 1143.02 1551.15 1143.52 1551.73 1143.52Z" fill="black" fill-opacity="0.25"/>
<path d="M840.058 457.355C840.051 458.445 839.753 459.509 839.201 460.421C838.648 461.332 837.865 462.052 836.945 462.495C836.024 462.937 835.006 463.083 834.01 462.916C833.015 462.749 832.086 462.275 831.333 461.551C830.58 460.827 830.036 459.883 829.766 458.834C829.495 457.784 829.51 456.672 829.808 455.631C830.107 454.59 830.676 453.664 831.448 452.964C832.219 452.264 833.161 451.819 834.16 451.683C836.458 453.127 838.464 455.056 840.058 457.355V457.355Z" fill="black" fill-opacity="0.25"/>
<path d="M1744.95 783.446C1745.78 783.446 1746.45 782.722 1746.45 781.83C1746.45 780.937 1745.78 780.213 1744.95 780.213C1744.13 780.213 1743.46 780.937 1743.46 781.83C1743.46 782.722 1744.13 783.446 1744.95 783.446Z" fill="black" fill-opacity="0.25"/>
<path d="M1713.44 757.917C1716.46 757.917 1718.91 755.267 1718.91 751.998C1718.91 748.73 1716.46 746.08 1713.44 746.08C1710.42 746.08 1707.97 748.73 1707.97 751.998C1707.97 755.267 1710.42 757.917 1713.44 757.917Z" fill="black" fill-opacity="0.25"/>
<path d="M1712.98 637.153C1710.54 640.909 1707.35 644.024 1703.65 646.266C1699.95 648.508 1695.83 649.82 1691.59 650.105C1691.59 649.68 1691.54 649.254 1691.54 648.819C1691.54 646.127 1692.23 643.488 1693.54 641.197C1694.85 638.906 1696.72 637.052 1698.94 635.843C1701.16 634.633 1703.65 634.115 1706.13 634.346C1708.61 634.578 1710.98 635.549 1712.98 637.153V637.153Z" fill="black" fill-opacity="0.25"/>
<path d="M1672.39 816.333C1672.38 817.423 1672.08 818.487 1671.53 819.399C1670.98 820.31 1670.19 821.03 1669.27 821.473C1668.35 821.915 1667.33 822.062 1666.34 821.894C1665.34 821.727 1664.41 821.253 1663.66 820.529C1662.91 819.805 1662.36 818.861 1662.09 817.812C1661.82 816.762 1661.84 815.65 1662.14 814.609C1662.43 813.568 1663 812.642 1663.77 811.942C1664.55 811.242 1665.49 810.797 1666.49 810.661C1668.79 812.105 1670.79 814.034 1672.39 816.333V816.333Z" fill="black" fill-opacity="0.25"/>
<path d="M1079.64 1137.43C1080.46 1137.43 1081.13 1136.7 1081.13 1135.81C1081.13 1134.92 1080.46 1134.19 1079.64 1134.19C1078.81 1134.19 1078.14 1134.92 1078.14 1135.81C1078.14 1136.7 1078.81 1137.43 1079.64 1137.43Z" fill="black" fill-opacity="0.25"/>
<path d="M1048.15 1219.9C1051.17 1219.9 1053.62 1217.25 1053.62 1213.98C1053.62 1210.71 1051.17 1208.06 1048.15 1208.06C1045.13 1208.06 1042.68 1210.71 1042.68 1213.98C1042.68 1217.25 1045.13 1219.9 1048.15 1219.9Z" fill="black" fill-opacity="0.25"/>
<path d="M986.858 1103.27C984.419 1107.03 981.23 1110.14 977.527 1112.38C973.824 1114.62 969.703 1115.94 965.467 1116.22C965.467 1115.8 965.415 1115.37 965.415 1114.94C965.417 1112.24 966.111 1109.6 967.418 1107.31C968.724 1105.02 970.593 1103.17 972.817 1101.96C975.04 1100.75 977.53 1100.23 980.009 1100.46C982.488 1100.69 984.859 1101.67 986.858 1103.27V1103.27Z" fill="black" fill-opacity="0.25"/>
<path d="M1446.77 996.761C1444.33 1000.52 1441.14 1003.63 1437.44 1005.87C1433.74 1008.12 1429.62 1009.43 1425.38 1009.71C1425.38 1009.29 1425.33 1008.86 1425.33 1008.43C1425.33 1005.74 1426.02 1003.1 1427.33 1000.81C1428.64 998.514 1430.51 996.66 1432.73 995.451C1434.95 994.241 1437.44 993.723 1439.92 993.955C1442.4 994.186 1444.77 995.157 1446.77 996.761V996.761Z" fill="black" fill-opacity="0.25"/>
<path d="M1053.17 944.601C1053.16 945.691 1052.86 946.755 1052.31 947.667C1051.76 948.578 1050.97 949.298 1050.05 949.74C1049.13 950.183 1048.11 950.329 1047.12 950.162C1046.12 949.994 1045.19 949.52 1044.44 948.796C1043.69 948.072 1043.14 947.129 1042.87 946.079C1042.6 945.03 1042.62 943.918 1042.92 942.877C1043.22 941.836 1043.78 940.91 1044.56 940.21C1045.33 939.51 1046.27 939.065 1047.27 938.929C1049.57 940.372 1051.57 942.301 1053.17 944.601V944.601Z" fill="black" fill-opacity="0.25"/>
<path d="M1327.31 710.025C1328.14 710.025 1328.81 709.301 1328.81 708.408C1328.81 707.515 1328.14 706.792 1327.31 706.792C1326.49 706.792 1325.82 707.515 1325.82 708.408C1325.82 709.301 1326.49 710.025 1327.31 710.025Z" fill="black" fill-opacity="0.25"/>
<path d="M1295.8 684.495C1298.82 684.495 1301.27 681.845 1301.27 678.577C1301.27 675.308 1298.82 672.658 1295.8 672.658C1292.78 672.658 1290.33 675.308 1290.33 678.577C1290.33 681.845 1292.78 684.495 1295.8 684.495Z" fill="black" fill-opacity="0.25"/>
<path d="M1264.34 690.064C1264.33 691.154 1264.03 692.218 1263.48 693.13C1262.93 694.041 1262.14 694.761 1261.22 695.204C1260.3 695.646 1259.29 695.792 1258.29 695.625C1257.29 695.458 1256.36 694.983 1255.61 694.259C1254.86 693.535 1254.32 692.592 1254.04 691.542C1253.77 690.493 1253.79 689.381 1254.09 688.34C1254.39 687.299 1254.96 686.373 1255.73 685.673C1256.5 684.973 1257.44 684.528 1258.44 684.392C1260.74 685.835 1262.74 687.765 1264.34 690.064V690.064Z" fill="black" fill-opacity="0.25"/>
<path d="M1206.66 419.432C1207.55 419.432 1208.27 418.653 1208.27 417.692C1208.27 416.732 1207.55 415.953 1206.66 415.953C1205.77 415.953 1205.05 416.732 1205.05 417.692C1205.05 418.653 1205.77 419.432 1206.66 419.432Z" fill="white" fill-opacity="0.75"/>
<path d="M962.947 861.436C964.323 861.436 965.438 860.229 965.438 858.741C965.438 857.253 964.323 856.047 962.947 856.047C961.572 856.047 960.457 857.253 960.457 858.741C960.457 860.229 961.572 861.436 962.947 861.436Z" fill="white" fill-opacity="0.75"/>
<path d="M876.317 720.304H874.509V718.347H873.775V720.304H871.966V721.098H873.775V723.055H874.509V721.098H876.317V720.304Z" fill="white" fill-opacity="0.75"/>
<path d="M878.877 823.694C879.765 823.694 880.485 822.916 880.485 821.955C880.485 820.994 879.765 820.215 878.877 820.215C877.989 820.215 877.27 820.994 877.27 821.955C877.27 822.916 877.989 823.694 878.877 823.694Z" fill="white" fill-opacity="0.75"/>
<path d="M1240.21 316.363H1238.41V314.406H1237.67V316.363H1235.86V317.158H1237.67V319.115H1238.41V317.158H1240.21V316.363Z" fill="white" fill-opacity="0.75"/>
<path d="M676.188 1069.1H674.38V1067.14H673.646V1069.1H671.837V1069.89H673.646V1071.85H674.38V1069.89H676.188V1069.1Z" fill="white" fill-opacity="0.75"/>
<path d="M954.316 1012.89H952.508V1010.93H951.774V1012.89H949.965V1013.68H951.774V1015.64H952.508V1013.68H954.316V1012.89Z" fill="white" fill-opacity="0.75"/>
<path d="M1229.33 730.784C1230.71 730.784 1231.83 729.578 1231.83 728.09C1231.83 726.602 1230.71 725.395 1229.33 725.395C1227.96 725.395 1226.84 726.602 1226.84 728.09C1226.84 729.578 1227.96 730.784 1229.33 730.784Z" fill="white" fill-opacity="0.75"/>
<path d="M779.93 1168.85C781.305 1168.85 782.42 1167.65 782.42 1166.16C782.42 1164.67 781.305 1163.46 779.93 1163.46C778.554 1163.46 777.439 1164.67 777.439 1166.16C777.439 1167.65 778.554 1168.85 779.93 1168.85Z" fill="white" fill-opacity="0.75"/>
<path d="M648.798 1301.02C649.686 1301.02 650.406 1300.24 650.406 1299.28C650.406 1298.32 649.686 1297.54 648.798 1297.54C647.91 1297.54 647.19 1298.32 647.19 1299.28C647.19 1300.24 647.91 1301.02 648.798 1301.02Z" fill="white" fill-opacity="0.75"/>
<path d="M858.683 1222.72C860.058 1222.72 861.173 1221.51 861.173 1220.02C861.173 1218.54 860.058 1217.33 858.683 1217.33C857.307 1217.33 856.192 1218.54 856.192 1220.02C856.192 1221.51 857.307 1222.72 858.683 1222.72Z" fill="white" fill-opacity="0.75"/>
<path d="M930.533 1239.46C931.909 1239.46 933.023 1238.26 933.023 1236.77C933.023 1235.28 931.909 1234.07 930.533 1234.07C929.158 1234.07 928.043 1235.28 928.043 1236.77C928.043 1238.26 929.158 1239.46 930.533 1239.46Z" fill="white" fill-opacity="0.75"/>
<path d="M872.361 1125.85C874.822 1125.85 876.817 1123.69 876.817 1121.03C876.817 1118.37 874.822 1116.21 872.361 1116.21C869.899 1116.21 867.904 1118.37 867.904 1121.03C867.904 1123.69 869.899 1125.85 872.361 1125.85Z" fill="white" fill-opacity="0.75"/>
<path d="M77.3246 1327.46C78.2126 1327.46 78.9324 1326.68 78.9324 1325.72C78.9324 1324.76 78.2126 1323.98 77.3246 1323.98C76.4367 1323.98 75.7168 1324.76 75.7168 1325.72C75.7168 1326.68 76.4367 1327.46 77.3246 1327.46Z" fill="white" fill-opacity="0.75"/>
<path d="M241.508 1170.22C242.883 1170.22 243.998 1169.01 243.998 1167.53C243.998 1166.04 242.883 1164.83 241.508 1164.83C240.133 1164.83 239.018 1166.04 239.018 1167.53C239.018 1169.01 240.133 1170.22 241.508 1170.22Z" fill="white" fill-opacity="0.75"/>
<path d="M157.438 1132.48C158.326 1132.48 159.046 1131.7 159.046 1130.74C159.046 1129.78 158.326 1129 157.438 1129C156.55 1129 155.83 1129.78 155.83 1130.74C155.83 1131.7 156.55 1132.48 157.438 1132.48Z" fill="white" fill-opacity="0.75"/>
<path d="M58.4902 1477.64C59.8656 1477.64 60.9805 1476.43 60.9805 1474.94C60.9805 1473.46 59.8656 1472.25 58.4902 1472.25C57.1149 1472.25 56 1473.46 56 1474.94C56 1476.43 57.1149 1477.64 58.4902 1477.64Z" fill="white" fill-opacity="0.75"/>
<path d="M150.921 1434.64C153.382 1434.64 155.378 1432.48 155.378 1429.82C155.378 1427.15 153.382 1424.99 150.921 1424.99C148.46 1424.99 146.465 1427.15 146.465 1429.82C146.465 1432.48 148.46 1434.64 150.921 1434.64Z" fill="white" fill-opacity="0.75"/>
<path d="M1561.6 390.195C1562.97 390.195 1564.09 388.988 1564.09 387.5C1564.09 386.012 1562.97 384.806 1561.6 384.806C1560.22 384.806 1559.11 386.012 1559.11 387.5C1559.11 388.988 1560.22 390.195 1561.6 390.195Z" fill="white" fill-opacity="0.75"/>
<path d="M1640.35 444.059C1641.72 444.059 1642.84 442.853 1642.84 441.365C1642.84 439.876 1641.72 438.67 1640.35 438.67C1638.97 438.67 1637.86 439.876 1637.86 441.365C1637.86 442.853 1638.97 444.059 1640.35 444.059Z" fill="white" fill-opacity="0.75"/>
<path d="M1712.2 460.803C1713.57 460.803 1714.69 459.597 1714.69 458.109C1714.69 456.621 1713.57 455.414 1712.2 455.414C1710.82 455.414 1709.71 456.621 1709.71 458.109C1709.71 459.597 1710.82 460.803 1712.2 460.803Z" fill="white" fill-opacity="0.75"/>
<path d="M1654.03 347.194C1656.49 347.194 1658.48 345.035 1658.48 342.372C1658.48 339.709 1656.49 337.551 1654.03 337.551C1651.57 337.551 1649.57 339.709 1649.57 342.372C1649.57 345.035 1651.57 347.194 1654.03 347.194Z" fill="white" fill-opacity="0.75"/>
<path d="M1199.78 1128.52C1202.24 1128.52 1204.24 1126.36 1204.24 1123.7C1204.24 1121.04 1202.24 1118.88 1199.78 1118.88C1197.32 1118.88 1195.32 1121.04 1195.32 1123.7C1195.32 1126.36 1197.32 1128.52 1199.78 1128.52Z" fill="white" fill-opacity="0.75"/>
<path d="M1657.22 977.056C1659.68 977.056 1661.67 974.897 1661.67 972.234C1661.67 969.571 1659.68 967.413 1657.22 967.413C1654.76 967.413 1652.76 969.571 1652.76 972.234C1652.76 974.897 1654.76 977.056 1657.22 977.056Z" fill="white" fill-opacity="0.75"/>
<path d="M1715.27 1140.79C1717.73 1140.79 1719.72 1138.63 1719.72 1135.96C1719.72 1133.3 1717.73 1131.14 1715.27 1131.14C1712.8 1131.14 1710.81 1133.3 1710.81 1135.96C1710.81 1138.63 1712.8 1140.79 1715.27 1140.79Z" fill="white" fill-opacity="0.75"/>
<path d="M1575.4 818.136C1576.77 818.136 1577.89 816.93 1577.89 815.442C1577.89 813.954 1576.77 812.747 1575.4 812.747C1574.02 812.747 1572.91 813.954 1572.91 815.442C1572.91 816.93 1574.02 818.136 1575.4 818.136Z" fill="white" fill-opacity="0.75"/>
<path d="M1154.44 911.999C1155.81 911.999 1156.93 910.792 1156.93 909.304C1156.93 907.816 1155.81 906.61 1154.44 906.61C1153.06 906.61 1151.95 907.816 1151.95 909.304C1151.95 910.792 1153.06 911.999 1154.44 911.999Z" fill="white" fill-opacity="0.75"/>
<path d="M1199.78 923.188C1202.24 923.188 1204.24 921.029 1204.24 918.366C1204.24 915.704 1202.24 913.545 1199.78 913.545C1197.32 913.545 1195.32 915.704 1195.32 918.366C1195.32 921.029 1197.32 923.188 1199.78 923.188Z" fill="white" fill-opacity="0.75"/>
<path d="M1246.12 880.534C1247.5 880.534 1248.61 879.328 1248.61 877.84C1248.61 876.352 1247.5 875.145 1246.12 875.145C1244.75 875.145 1243.63 876.352 1243.63 877.84C1243.63 879.328 1244.75 880.534 1246.12 880.534Z" fill="white" fill-opacity="0.75"/>
<path d="M1780.68 690.148C1781.56 690.148 1782.28 689.369 1782.28 688.409C1782.28 687.448 1781.56 686.669 1780.68 686.669C1779.79 686.669 1779.07 687.448 1779.07 688.409C1779.07 689.369 1779.79 690.148 1780.68 690.148Z" fill="white" fill-opacity="0.75"/>
<path d="M1775.53 535.469C1776.9 535.469 1778.02 534.263 1778.02 532.775C1778.02 531.287 1776.9 530.08 1775.53 530.08C1774.15 530.08 1773.04 531.287 1773.04 532.775C1773.04 534.263 1774.15 535.469 1775.53 535.469Z" fill="white" fill-opacity="0.75"/>
<path d="M1820.87 546.659C1823.33 546.659 1825.33 544.5 1825.33 541.837C1825.33 539.174 1823.33 537.015 1820.87 537.015C1818.41 537.015 1816.41 539.174 1816.41 541.837C1816.41 544.5 1818.41 546.659 1820.87 546.659Z" fill="white" fill-opacity="0.75"/>
<path d="M1867.21 504.005C1868.59 504.005 1869.7 502.798 1869.7 501.31C1869.7 499.822 1868.59 498.616 1867.21 498.616C1865.83 498.616 1864.72 499.822 1864.72 501.31C1864.72 502.798 1865.83 504.005 1867.21 504.005Z" fill="white" fill-opacity="0.75"/>
<path d="M711.777 474.102C706.325 474.611 700.841 474.532 695.404 473.865C635.633 466.694 554.241 468.734 487.891 513.342C396.131 575.024 252.326 522.219 188.891 493.491C140.422 471.55 115.259 417.808 130.373 367.363C130.586 366.652 130.805 365.94 131.035 365.228C140.546 335.249 159.319 311.788 182.566 299.351C202.828 288.512 232.412 265.877 245.576 222.385C251.014 204.426 258.473 187.532 268.161 172.806C294.104 133.368 348.413 74.6361 441.816 75.0017C458.192 75.0878 474.446 78.0731 489.936 83.84C524.06 96.456 554.879 122.105 578.381 157.663C593.376 180.342 615.849 201.425 648.022 203.144C692.673 205.542 735.284 228.1 767.25 268.244C768.172 269.399 769.083 270.559 769.993 271.733C826.908 345.306 787.377 466.932 711.777 474.102Z" fill="white" fill-opacity="0.46"/>
<path d="M1127.54 831.789C1125.83 831.948 1124.11 831.923 1122.4 831.715C1103.64 829.473 1078.09 830.111 1057.26 844.058C1028.46 863.345 983.312 846.834 963.399 837.852C948.183 830.991 940.284 814.187 945.029 798.415C945.096 798.192 945.164 797.969 945.237 797.747C948.222 788.373 954.116 781.037 961.413 777.149C967.774 773.76 977.061 766.682 981.193 753.083C982.9 747.468 985.242 742.186 988.283 737.581C996.427 725.25 1013.48 706.886 1042.8 707C1047.94 707.027 1053.04 707.961 1057.9 709.764C1068.61 713.709 1078.29 721.728 1085.67 732.847C1090.37 739.938 1097.43 746.53 1107.53 747.067C1121.55 747.817 1134.92 754.87 1144.96 767.422C1145.25 767.783 1145.53 768.146 1145.82 768.513C1163.68 791.518 1151.28 829.547 1127.54 831.789Z" fill="white" fill-opacity="0.46"/>
<path d="M414.622 1022.9C409.823 1023.35 404.996 1023.28 400.21 1022.69C347.598 1016.4 275.953 1018.19 217.55 1057.3C136.779 1111.38 10.1966 1065.08 -45.6415 1039.9C-88.3057 1020.66 -110.455 973.545 -97.1507 929.32C-96.9634 928.695 -96.7709 928.071 -96.5679 927.447C-88.1964 901.165 -71.6718 880.595 -51.2086 869.692C-33.3729 860.189 -7.33213 840.345 4.25484 802.215C9.04156 786.47 15.6077 771.659 24.1353 758.748C46.9711 724.172 94.7758 672.681 176.993 673.001C191.408 673.077 205.715 675.694 219.35 680.75C249.387 691.811 276.515 714.298 297.202 745.472C310.402 765.355 330.183 783.839 358.503 785.346C397.806 787.449 435.314 807.225 463.452 842.42C464.263 843.432 465.065 844.45 465.866 845.479C515.965 909.982 481.168 1016.61 414.622 1022.9Z" fill="white" fill-opacity="0.46"/>
<path d="M2153.48 242.633C2150.38 243.689 2147.19 244.409 2143.95 244.783C2108.4 248.986 2061.39 261.534 2028.17 296.59C1982.23 345.066 1892.47 334.625 1852.24 326.877C1821.49 320.962 1800.5 293.407 1803.28 262.133C1803.32 261.692 1803.36 261.25 1803.41 260.806C1805.37 242.146 1813.48 225.961 1825.5 215.524C1835.97 206.427 1850.46 189.21 1852.93 162.227C1853.95 151.085 1856.28 140.277 1860.15 130.41C1870.52 103.986 1895.07 62.4464 1949.34 49.6115C1958.86 47.3739 1968.65 46.8296 1978.33 47.9999C1999.64 50.5273 2020.57 61.0508 2038.44 78.3252C2049.84 89.342 2065.39 98.3912 2084.28 94.8912C2110.48 90.0413 2137.9 97.1305 2161.23 115.874C2161.9 116.412 2162.57 116.956 2163.23 117.508C2205.02 152.092 2196.52 227.928 2153.48 242.633Z" fill="white" fill-opacity="0.46"/>
<path d="M2112.37 889.365C2109.13 889.667 2105.86 889.62 2102.63 889.225C2067.08 884.978 2018.68 886.186 1979.22 912.605C1924.65 949.136 1839.13 917.862 1801.4 900.848C1772.58 887.854 1757.61 856.026 1766.6 826.15C1766.73 825.728 1766.86 825.307 1766.99 824.885C1772.65 807.131 1783.81 793.236 1797.64 785.87C1809.69 779.451 1827.28 766.046 1835.11 740.288C1838.35 729.652 1842.78 719.646 1848.54 710.925C1863.97 687.568 1896.27 652.784 1951.82 653.001C1961.56 653.052 1971.23 654.82 1980.44 658.235C2000.73 665.707 2019.06 680.897 2033.04 701.957C2041.95 715.388 2055.32 727.874 2074.45 728.892C2101.01 730.313 2126.35 743.672 2145.36 767.447C2145.91 768.131 2146.45 768.819 2146.99 769.514C2180.84 813.087 2157.33 885.119 2112.37 889.365Z" fill="white" fill-opacity="0.46"/>
<path opacity="0.45" d="M658.809 1173.32C663.196 1173.84 667.148 1170.42 667.636 1165.68C668.124 1160.93 664.963 1156.65 660.576 1156.13C656.189 1155.6 652.237 1159.02 651.749 1163.76C651.261 1168.51 654.422 1172.79 658.809 1173.32Z" fill="black"/>
<path d="M575.809 1106.75L577.617 1106.75L577.617 1108.71L578.351 1108.71L578.351 1106.75L580.16 1106.75L580.16 1105.96L578.351 1105.96L578.351 1104L577.617 1104L577.617 1105.96L575.809 1105.96L575.809 1106.75Z" fill="white" fill-opacity="0.75"/>
<path d="M528.261 1488.06C526.885 1488.06 525.77 1489.27 525.77 1490.75C525.77 1492.24 526.885 1493.45 528.261 1493.45C529.636 1493.45 530.751 1492.24 530.751 1490.75C530.751 1489.27 529.636 1488.06 528.261 1488.06Z" fill="white" fill-opacity="0.75"/>
<path d="M533.307 1318.78C531.931 1318.78 530.816 1319.99 530.816 1321.48C530.816 1322.97 531.931 1324.17 533.307 1324.17C534.682 1324.17 535.797 1322.97 535.797 1321.48C535.797 1319.99 534.682 1318.78 533.307 1318.78Z" fill="white" fill-opacity="0.75"/>
<path d="M321.128 1473.97C320.241 1473.97 319.521 1474.75 319.521 1475.71C319.521 1476.67 320.241 1477.45 321.128 1477.45C322.016 1477.45 322.736 1476.67 322.736 1475.71C322.736 1474.75 322.016 1473.97 321.128 1473.97Z" fill="white" fill-opacity="0.75"/>
<path d="M32.4902 1157.72C31.1149 1157.72 30 1158.93 30 1160.41C30 1161.9 31.1149 1163.11 32.4902 1163.11C33.8656 1163.11 34.9805 1161.9 34.9805 1160.41C34.9805 1158.93 33.8656 1157.72 32.4902 1157.72Z" fill="white" fill-opacity="0.75"/>
<path d="M443.704 1423.55L445.513 1423.55L445.513 1425.51L446.247 1425.51L446.247 1423.55L448.056 1423.55L448.056 1422.75L446.247 1422.75L446.247 1420.8L445.513 1420.8L445.513 1422.75L443.704 1422.75L443.704 1423.55Z" fill="white" fill-opacity="0.75"/>
<path d="M339.963 1323.8C338.588 1323.8 337.473 1325 337.473 1326.49C337.473 1327.98 338.588 1329.18 339.963 1329.18C341.338 1329.18 342.453 1327.98 342.453 1326.49C342.453 1325 341.338 1323.8 339.963 1323.8Z" fill="white" fill-opacity="0.75"/>
<path d="M471.094 1191.63C470.206 1191.63 469.487 1192.41 469.487 1193.37C469.487 1194.33 470.206 1195.11 471.094 1195.11C471.982 1195.11 472.702 1194.33 472.702 1193.37C472.702 1192.41 471.982 1191.63 471.094 1191.63Z" fill="white" fill-opacity="0.75"/>
<path d="M261.21 1269.93C259.835 1269.93 258.72 1271.14 258.72 1272.63C258.72 1274.11 259.835 1275.32 261.21 1275.32C262.585 1275.32 263.7 1274.11 263.7 1272.63C263.7 1271.14 262.585 1269.93 261.21 1269.93Z" fill="white" fill-opacity="0.75"/>
<path d="M189.359 1253.19C187.984 1253.19 186.869 1254.39 186.869 1255.88C186.869 1257.37 187.984 1258.58 189.359 1258.58C190.735 1258.58 191.85 1257.37 191.85 1255.88C191.85 1254.39 190.735 1253.19 189.359 1253.19Z" fill="white" fill-opacity="0.75"/>
<path d="M247.532 1366.8C245.071 1366.8 243.076 1368.95 243.076 1371.62C243.076 1374.28 245.071 1376.44 247.532 1376.44C249.993 1376.44 251.988 1374.28 251.988 1371.62C251.988 1368.95 249.993 1366.8 247.532 1366.8Z" fill="white" fill-opacity="0.75"/>
<path opacity="0.45" d="M461.083 1319.33C456.696 1318.81 452.744 1322.23 452.256 1326.97C451.769 1331.72 454.929 1335.99 459.316 1336.52C463.703 1337.05 467.655 1333.63 468.143 1328.88C468.631 1324.14 465.47 1319.86 461.083 1319.33Z" fill="black"/>
</svg>
