<svg width="94" height="93" viewBox="0 0 94 93" fill="none" xmlns="http://www.w3.org/2000/svg">
<circle cx="47.0001" cy="46.1236" r="45.7706" stroke="black" stroke-opacity="0.59" stroke-width="0.5"/>
<path fill-rule="evenodd" clip-rule="evenodd" d="M67.6484 30.0637C70.1826 30.0637 72.2369 32.118 72.2369 34.6522V62.1836C72.2369 64.7178 70.1826 66.7722 67.6484 66.7722H26.3513C23.8171 66.7722 21.7627 64.7178 21.7627 62.1836V30.0637C21.7627 27.5295 23.8171 25.4751 26.3513 25.4751H40.117C42.6866 25.4751 44.3222 26.5659 45.965 28.6386C46.0105 28.6959 46.1211 28.8385 46.2437 28.9965L46.244 28.9969L46.2442 28.9971C46.4173 29.2201 46.614 29.4736 46.6843 29.5608C46.7554 29.649 46.8154 29.7219 46.865 29.7822C47.0667 30.0276 47.096 30.0632 47.0039 30.0637H67.6484ZM67.6484 39.2408V34.6521L46.9876 34.6521C45.3399 34.6432 44.2667 33.8718 43.113 32.4417C43.0084 32.3121 42.7545 31.9847 42.5701 31.747L42.57 31.7469L42.5696 31.7464C42.4733 31.6223 42.3961 31.5227 42.3691 31.4887C41.5097 30.4044 40.9986 30.0635 40.117 30.0635H26.3513V39.2408H67.6484ZM67.6484 43.8293H26.3513V62.1835H67.6484V43.8293Z" fill="#4A289B"/>
</svg>
