<svg width="408" height="514" viewBox="0 0 408 514" fill="none" xmlns="http://www.w3.org/2000/svg">
<g filter="url(#filter0_dd)">
<path fill-rule="evenodd" clip-rule="evenodd" d="M90.0364 337.684C90.0364 337.684 76.7166 367.685 67.7768 394.988C58.8371 422.292 65.6913 445.852 67.7537 447.744C69.8154 449.636 81.9256 440.595 87.1518 433.875C92.378 427.155 89.4265 401.416 95.991 443.903C102.555 486.389 112.427 510.8 117.102 502.613C134.991 488.318 138.178 426.95 150.997 450.225C163.815 473.5 181.865 516.929 183.328 476.048C184.79 435.168 174.254 406.309 190.788 422.439C207.323 438.567 216.643 461.512 222.271 438.846C227.898 416.18 209.793 356.292 201.869 330.789C182.244 325.26 139.621 318.881 90.0335 337.681L90.0364 337.684Z" fill="#4A289B" fill-opacity="0.79"/>
<path fill-rule="evenodd" clip-rule="evenodd" d="M103.665 344.253C103.665 344.253 84.3212 376.626 82.9384 390.487C81.555 404.349 84.0386 404.736 95.9527 394.862C107.867 384.988 107.458 363.808 114.625 393.08C121.793 422.351 123.563 452.345 131.769 424.883C139.973 397.421 141.649 390.448 148.355 408.894C155.062 427.34 162.67 443.776 164.24 411.174C164.692 387.001 191.611 405.077 197.133 407.307C205.474 417.796 180.536 341.959 175.402 337.249C168.81 333.093 109.491 342.031 103.665 344.253Z" fill="url(#paint0_linear)"/>
<path fill-rule="evenodd" clip-rule="evenodd" d="M164.591 21.0478C204.785 71.9125 288.635 215.034 204.349 365.707C187.365 351.705 113.847 343.636 86.4739 355.347C47.7715 180.466 118.408 63.5986 164.584 21.053L164.591 21.0478Z" fill="#D9D9D9"/>
<path fill-rule="evenodd" clip-rule="evenodd" d="M165.122 16.0793C166.459 16.2227 167.684 16.8982 168.517 17.9534C209.027 69.2169 294.562 214.686 208.717 368.146C207.993 369.44 206.732 370.346 205.274 370.618C203.816 370.891 202.311 370.504 201.166 369.56C197.818 366.8 190.961 363.885 181.35 361.368C171.952 358.907 160.586 356.99 148.831 355.858C137.079 354.727 125.059 354.391 114.36 355.044C103.561 355.703 94.5066 357.348 88.4466 359.941C87.0771 360.527 85.5168 360.472 84.1908 359.792C82.8648 359.112 81.911 357.877 81.5893 356.423C42.4795 179.701 113.788 61.0548 161.191 17.379C161.259 17.3164 161.329 17.2556 161.401 17.1968L161.407 17.1916C162.445 16.3369 163.784 15.936 165.122 16.0793ZM164.033 28.4907C119.58 72.3358 55.5945 183.731 90.168 348.742C96.9455 346.749 105.103 345.596 113.743 345.069C125.058 344.378 137.612 344.739 149.784 345.911C161.954 347.082 173.862 349.077 183.882 351.701C191.002 353.565 197.54 355.839 202.556 358.569C278.801 216.455 204.476 81.7389 164.033 28.4907Z" fill="black"/>
<path fill-rule="evenodd" clip-rule="evenodd" d="M75.2686 249.934C75.2686 249.934 22.1906 297.252 21.6528 297.695C21.115 298.138 45.6 389.047 47.0909 394.134L87.45 355.483C82.0296 350.014 72.4084 269.445 75.2707 249.937L75.2686 249.934Z" fill="#BFBFBF"/>
<path fill-rule="evenodd" clip-rule="evenodd" d="M75.6474 244.952C77.0045 245.056 78.2611 245.708 79.1275 246.757L79.1296 246.76C80.0298 247.85 80.4264 249.269 80.2214 250.666C79.5884 254.98 79.6139 263.203 80.1996 273.614C80.777 283.875 81.8704 295.843 83.224 307.399C84.5783 318.961 86.1841 330.033 87.7756 338.511C88.5734 342.762 89.3514 346.271 90.0706 348.833C90.4319 350.12 90.7522 351.072 91.0178 351.719C91.132 351.997 91.2134 352.162 91.2552 352.242C92.04 353.16 92.4684 354.335 92.4531 355.551C92.4362 356.889 91.882 358.165 90.9147 359.091L50.5557 397.742C49.2941 398.95 47.4917 399.412 45.802 398.961C44.1122 398.509 42.7803 397.21 42.289 395.533C41.5214 392.914 35.0061 368.833 28.7762 345.454C25.6551 333.741 22.5947 322.164 20.3471 313.482C19.2242 309.144 18.2993 305.511 17.6701 302.939C17.3572 301.66 17.1084 300.607 16.944 299.85C16.8644 299.484 16.7894 299.117 16.7378 298.806C16.7153 298.669 16.6758 298.418 16.6554 298.135C16.6469 298.016 16.6264 297.703 16.6579 297.314C16.6731 297.127 16.7134 296.739 16.8537 296.27C16.9565 295.927 17.3244 294.78 18.4681 293.838C18.4542 293.85 18.6081 293.713 18.9328 293.425C19.3131 293.088 19.928 292.542 20.7824 291.782C22.2838 290.447 24.4001 288.564 26.9257 286.315C31.9767 281.817 38.6612 275.861 45.3295 269.919C51.9976 263.977 58.6489 258.048 63.6333 253.606L71.9342 246.206C71.9346 246.206 71.9348 246.206 75.2686 249.935L71.9342 246.206C72.9491 245.301 74.2902 244.848 75.6474 244.952ZM69.7548 261.55C69.7924 265.392 69.9552 269.667 70.2083 274.166C70.7993 284.669 71.9133 296.843 73.2847 308.551C74.6554 320.253 76.2924 331.568 77.9399 340.344C78.7615 344.721 79.6021 348.556 80.4354 351.523C80.7247 352.554 81.0259 353.526 81.3408 354.408L49.6895 384.719C47.1194 375.264 42.7309 358.97 38.4465 342.892C35.3272 331.186 32.2741 319.635 30.0354 310.988C28.9152 306.661 28.0039 303.08 27.3911 300.575C27.298 300.195 27.2127 299.843 27.1351 299.519C31.6009 295.551 41.8862 286.387 51.9957 277.378C58.4238 271.65 64.8362 265.935 69.7548 261.55ZM24.8382 301.551C24.8605 301.533 24.9306 301.472 25.0457 301.371C24.9796 301.432 24.9105 301.492 24.8382 301.551Z" fill="black"/>
<path fill-rule="evenodd" clip-rule="evenodd" d="M238.437 265.713C238.437 265.713 280.785 321.916 281.216 322.464C281.647 323.013 238.293 406.528 235.744 411.181L204.595 364.755C220.789 341.732 236.236 288.769 238.439 265.713L238.437 265.713Z" fill="#BFBFBF"/>
<path fill-rule="evenodd" clip-rule="evenodd" d="M233.447 265.355C232.375 276.383 228.091 294.931 222.004 313.703C215.877 332.598 208.15 351.005 200.5 361.881C199.312 363.57 199.288 365.817 200.439 367.534L231.588 413.96C232.562 415.411 234.222 416.25 235.969 416.173C237.715 416.096 239.294 415.114 240.133 413.583C241.447 411.186 252.962 389.066 264.046 367.574C269.599 356.807 275.064 346.158 279.116 338.163C281.14 334.168 282.82 330.818 283.985 328.442C284.564 327.26 285.032 326.286 285.355 325.582C285.511 325.241 285.662 324.899 285.779 324.606C285.831 324.477 285.923 324.24 286.003 323.969C286.037 323.854 286.124 323.553 286.176 323.166C286.202 322.98 286.245 322.593 286.208 322.105C286.182 321.747 286.067 320.548 285.152 319.383C285.152 319.383 285.152 319.383 285.152 319.383C285.157 319.389 285.134 319.358 285.077 319.284C285.001 319.184 284.865 319.004 284.658 318.729C284.325 318.289 283.849 317.658 283.249 316.864C282.051 315.275 280.362 313.035 278.346 310.362C274.316 305.017 268.982 297.94 263.662 290.88C258.342 283.821 253.035 276.778 249.058 271.501L242.506 262.806C242.325 262.554 242.12 262.317 241.892 262.099C240.781 261.041 239.247 260.55 237.728 260.766L237.726 260.766C235.975 261.016 234.488 262.17 233.813 263.803C233.605 264.304 233.484 264.829 233.447 265.355ZM241.624 278.247C245.532 283.433 250.594 290.151 255.669 296.885C263.74 307.594 271.898 318.418 275.447 323.12C275.309 323.405 275.159 323.713 274.997 324.043C273.862 326.358 272.207 329.659 270.187 333.644C266.152 341.607 260.699 352.231 255.149 362.992C247.525 377.776 239.753 392.747 235.22 401.429L210.616 364.756C218.445 352.529 225.795 334.454 231.523 316.789C235.947 303.148 239.518 289.389 241.624 278.247ZM277.204 325.445C277.229 325.479 277.254 325.512 277.28 325.545C277.28 325.545 277.28 325.545 277.28 325.545M277.204 325.445C277.244 325.498 277.27 325.532 277.28 325.545ZM276.482 320.905C276.488 320.888 276.489 320.886 276.483 320.902C276.482 320.903 276.482 320.904 276.482 320.905Z" fill="black"/>
<path fill-rule="evenodd" clip-rule="evenodd" d="M164.829 252.456C164.829 252.456 150.653 279.314 148.385 283.745C147.554 287.575 147.995 366.689 148.696 371.946L160.782 358.609C161.48 349.522 163.714 274.409 164.829 252.456L164.829 252.456Z" fill="#BFBFBF"/>
<path fill-rule="evenodd" clip-rule="evenodd" d="M164.317 247.485C165.982 247.315 167.622 247.989 168.688 249.279C169.483 250.242 169.89 251.467 169.826 252.714C169.291 263.243 168.48 286.623 167.707 308.867C166.896 332.225 166.129 354.331 165.771 358.995C165.686 360.099 165.237 361.143 164.493 361.964L152.407 375.301C151.1 376.744 149.072 377.296 147.21 376.716C145.349 376.137 143.993 374.531 143.736 372.601C143.606 371.625 143.52 369.5 143.446 366.944C143.368 364.238 143.296 360.676 143.232 356.558C143.105 348.319 143.01 337.798 142.963 327.328C142.916 316.86 142.916 306.425 142.981 298.359C143.013 294.329 143.062 290.869 143.129 288.285C143.163 286.996 143.202 285.896 143.247 285.039C143.284 284.355 143.341 283.392 143.495 282.683C143.586 282.261 143.733 281.852 143.929 281.468C145.08 279.219 149.21 271.361 153.029 264.11C154.943 260.475 156.787 256.978 158.151 254.39C158.834 253.097 159.397 252.03 159.789 251.286L160.402 250.123C160.403 250.123 160.403 250.123 164.829 252.456L160.402 250.123C161.183 248.645 162.652 247.655 164.317 247.485ZM158.913 274.419C156.507 278.994 154.339 283.126 153.262 285.205C153.255 285.31 153.248 285.435 153.24 285.58C153.201 286.305 153.165 287.302 153.133 288.553C153.068 291.049 153.02 294.44 152.988 298.447C152.923 306.457 152.922 316.847 152.969 327.292C153.016 337.737 153.111 348.22 153.238 356.413C153.254 357.458 153.27 358.465 153.288 359.429L155.9 356.547C156.283 349.685 156.96 330.084 157.681 309.251C158.093 297.325 158.52 284.995 158.913 274.419Z" fill="black"/>
<path fill-rule="evenodd" clip-rule="evenodd" d="M163.918 250.359L139.741 252.411L127.886 284.158L129.812 373.889L148.059 372.055L149.051 283.928L163.919 250.36L163.918 250.359Z" fill="#BFBFBF"/>
<path fill-rule="evenodd" clip-rule="evenodd" d="M165.947 245.793C168.471 246.913 169.612 249.863 168.496 252.385L154.043 285.015L153.062 372.116C153.034 374.658 151.098 376.772 148.564 377.027L130.318 378.86C128.929 379 127.544 378.553 126.498 377.629C125.452 376.704 124.84 375.385 124.81 373.991L122.884 284.26C122.87 283.629 122.977 283 123.198 282.408L135.054 250.661C135.729 248.853 137.388 247.596 139.314 247.432L163.49 245.38C164.33 245.309 165.174 245.451 165.945 245.793L165.947 245.793ZM155.925 256.053L143.324 257.122L132.909 285.011L134.699 368.375L143.107 367.53L144.048 283.867C144.056 283.19 144.201 282.522 144.476 281.903L155.925 256.053Z" fill="black"/>
<path fill-rule="evenodd" clip-rule="evenodd" d="M157.066 141.005C117.243 143.111 117.646 205.979 154.336 205.551C198.971 204.897 194.172 146.554 157.066 141.005Z" fill="#BFBFBF"/>
<path fill-rule="evenodd" clip-rule="evenodd" d="M183.395 200.22C176.814 207.304 167.024 211.612 154.43 211.797L154.411 211.797C143.229 211.928 134.493 207.143 128.751 199.78C123.143 192.589 120.59 183.235 120.756 174.112C121.087 155.976 132.576 136.044 156.732 134.767C157.152 134.745 157.573 134.765 157.989 134.827C180.08 138.13 192.305 157.146 192.606 175.011C192.758 184.042 189.906 193.212 183.395 200.22ZM156.767 147.283C171.4 149.789 179.888 162.538 180.102 175.216C180.208 181.547 178.21 187.432 174.227 191.72C170.315 195.931 163.969 199.16 154.251 199.304C147.093 199.386 142.023 196.473 138.616 192.104C135.074 187.563 133.136 181.148 133.26 174.345C133.508 160.812 141.511 148.411 156.767 147.283Z" fill="black"/>
<path fill-rule="evenodd" clip-rule="evenodd" d="M158.374 148.063C182.373 150.866 192.509 194.881 157.85 199.959C125.086 200.764 124.185 148.238 158.374 148.063Z" fill="#E84026"/>
<path fill-rule="evenodd" clip-rule="evenodd" d="M158.087 153.063C151.114 153.177 146.256 155.865 143.069 159.601C139.743 163.499 137.987 168.848 138.007 174.362C138.027 179.881 139.824 185.171 143.088 188.95C146.206 192.561 150.869 195.052 157.425 194.968C164.788 193.825 169.274 190.751 171.879 187.165C174.574 183.456 175.634 178.674 175.13 173.654C174.094 163.314 166.903 154.271 158.087 153.063ZM179.977 193.039C175.52 199.173 168.363 203.469 158.577 204.903C158.377 204.932 158.176 204.949 157.974 204.954C148.306 205.192 140.664 201.44 135.514 195.478C130.463 189.63 128.029 181.928 128.002 174.394C127.974 166.856 130.356 159.09 135.453 153.116C140.641 147.035 148.393 143.116 158.346 143.065C158.549 143.064 158.751 143.075 158.953 143.099C174.003 144.857 183.73 159.138 185.086 172.662C185.784 179.63 184.379 186.98 179.977 193.039Z" fill="black"/>
<path fill-rule="evenodd" clip-rule="evenodd" d="M167.826 95.0077C161.037 94.0629 141.836 93.049 140.894 111.956C146.709 121.074 179.206 107.339 167.826 95.0077Z" fill="white" fill-opacity="0.75"/>
</g>
<defs>
<filter id="filter0_dd" x="12.6406" y="16.0508" width="277.582" height="496.135" filterUnits="userSpaceOnUse" color-interpolation-filters="sRGB">
<feFlood flood-opacity="0" result="BackgroundImageFix"/>
<feColorMatrix in="SourceAlpha" type="matrix" values="0 0 0 0 0 0 0 0 0 0 0 0 0 0 0 0 0 0 127 0"/>
<feOffset dy="4"/>
<feGaussianBlur stdDeviation="2"/>
<feColorMatrix type="matrix" values="0 0 0 0 0 0 0 0 0 0 0 0 0 0 0 0 0 0 0.25 0"/>
<feBlend mode="normal" in2="BackgroundImageFix" result="effect1_dropShadow"/>
<feColorMatrix in="SourceAlpha" type="matrix" values="0 0 0 0 0 0 0 0 0 0 0 0 0 0 0 0 0 0 127 0"/>
<feOffset dy="4"/>
<feGaussianBlur stdDeviation="2"/>
<feColorMatrix type="matrix" values="0 0 0 0 0 0 0 0 0 0 0 0 0 0 0 0 0 0 0.25 0"/>
<feBlend mode="normal" in2="effect1_dropShadow" result="effect2_dropShadow"/>
<feBlend mode="normal" in="SourceGraphic" in2="effect2_dropShadow" result="shape"/>
</filter>
<linearGradient id="paint0_linear" x1="181.664" y1="342.994" x2="107.941" y2="423.352" gradientUnits="userSpaceOnUse">
<stop stop-color="#E84026"/>
<stop offset="0.90625" stop-color="#EFD9CE" stop-opacity="0.77"/>
</linearGradient>
</defs>
</svg>
