<svg width="2242" height="267" viewBox="0 0 2242 267" fill="none" xmlns="http://www.w3.org/2000/svg">
<path d="M218.365 93.1553C106.107 90.7513 24.014 131.553 -3 152.254V0H2402V40.5676L2347.97 93.6561C2228.66 190.818 2113.1 238.898 1945.01 216.361C1776.93 193.823 1644.86 80.6344 1567.57 46.5776C1490.28 12.5208 1434.75 -4.50756 1301.93 25.0417C1169.11 54.591 967.254 270.952 785.66 266.945C636.332 266.945 607.817 215.86 480.251 155.76C378.198 107.68 263.138 93.99 218.365 93.1553Z" fill="#4A289B"/>
<path d="M781.74 97.4792C782.7 97.4792 783.479 96.7004 783.479 95.7396C783.479 94.7789 782.7 94.0001 781.74 94.0001C780.779 94.0001 780 94.7789 780 95.7396C780 96.7004 780.779 97.4792 781.74 97.4792Z" fill="white" fill-opacity="0.75"/>
<path d="M519.688 62.3906C521.177 62.3906 522.383 61.1843 522.383 59.6961C522.383 58.208 521.177 57.0016 519.688 57.0016C518.2 57.0016 516.994 58.208 516.994 59.6961C516.994 61.1843 518.2 62.3906 519.688 62.3906Z" fill="white" fill-opacity="0.75"/>
<path d="M697.694 218.389C699.182 218.389 700.389 217.183 700.389 215.695C700.389 214.206 699.182 213 697.694 213C696.206 213 695 214.206 695 215.695C695 217.183 696.206 218.389 697.694 218.389Z" fill="white" fill-opacity="0.75"/>
<path d="M1032.69 50.389C1034.18 50.389 1035.39 49.1827 1035.39 47.6946C1035.39 46.2064 1034.18 45.0001 1032.69 45.0001C1031.21 45.0001 1030 46.2064 1030 47.6946C1030 49.1827 1031.21 50.389 1032.69 50.389Z" fill="white" fill-opacity="0.75"/>
<path d="M127.693 20.3904C129.182 20.3904 130.388 19.1841 130.388 17.696C130.388 16.2079 129.182 15.0015 127.693 15.0015C126.205 15.0015 124.999 16.2079 124.999 17.696C124.999 19.1841 126.205 20.3904 127.693 20.3904Z" fill="white" fill-opacity="0.75"/>
<path d="M472.332 103.292H468.04V99.0001H466.291V103.292H461.999V105.041H466.291V109.324H468.04V105.041H472.332V103.292Z" fill="white" fill-opacity="0.75"/>
<path d="M874.917 56.8366C878.186 56.8366 880.836 54.1869 880.836 50.9183C880.836 47.6497 878.186 45 874.917 45C871.649 45 868.999 47.6497 868.999 50.9183C868.999 54.1869 871.649 56.8366 874.917 56.8366Z" fill="black" fill-opacity="0.25"/>
<path d="M1026.92 109.837C1030.19 109.837 1032.84 107.187 1032.84 103.918C1032.84 100.65 1030.19 98.0001 1026.92 98.0001C1023.65 98.0001 1021 100.65 1021 103.918C1021 107.187 1023.65 109.837 1026.92 109.837Z" fill="black" fill-opacity="0.25"/>
<path d="M806.2 212.86C803.561 216.617 800.111 219.732 796.105 221.974C792.098 224.216 787.639 225.528 783.057 225.812C783.057 225.387 783 224.961 783 224.527C783.003 221.834 783.753 219.195 785.167 216.904C786.581 214.613 788.603 212.759 791.008 211.55C793.413 210.34 796.107 209.822 798.79 210.054C801.472 210.285 804.038 211.257 806.2 212.86V212.86Z" fill="black" fill-opacity="0.25"/>
<path d="M591.693 181.389C593.181 181.389 594.388 180.183 594.388 178.695C594.388 177.206 593.181 176 591.693 176C590.205 176 588.999 177.206 588.999 178.695C588.999 180.183 590.205 181.389 591.693 181.389Z" fill="white" fill-opacity="0.75"/>
<path d="M714.688 155.391C716.177 155.391 717.383 154.185 717.383 152.696C717.383 151.208 716.177 150.002 714.688 150.002C713.2 150.002 711.994 151.208 711.994 152.696C711.994 154.185 713.2 155.391 714.688 155.391Z" fill="white" fill-opacity="0.75"/>
<path d="M271.822 53.6432C274.485 53.6432 276.643 51.4845 276.643 48.8216C276.643 46.1587 274.485 44 271.822 44C269.159 44 267 46.1587 267 48.8216C267 51.4845 269.159 53.6432 271.822 53.6432Z" fill="white" fill-opacity="0.75"/>
<path d="M928.816 98.6451C931.479 98.6451 933.637 96.4864 933.637 93.8235C933.637 91.1606 931.479 89.0019 928.816 89.0019C926.153 89.0019 923.994 91.1606 923.994 93.8235C923.994 96.4864 926.153 98.6451 928.816 98.6451Z" fill="white" fill-opacity="0.75"/>
<path d="M25.6799 31.4503C24.7519 31.6989 24.2012 32.6528 24.4499 33.5808C24.6985 34.5088 25.6524 35.0595 26.5804 34.8108C27.5084 34.5622 28.0592 33.6083 27.8105 32.6803C27.5619 31.7523 26.608 31.2016 25.6799 31.4503Z" fill="white" fill-opacity="0.75"/>
<path d="M399.601 16.6973C398.164 17.0825 397.311 18.5599 397.696 19.9973C398.081 21.4347 399.559 22.2878 400.996 21.9027C402.433 21.5175 403.286 20.04 402.901 18.6026C402.516 17.1652 401.039 16.3122 399.601 16.6973Z" fill="white" fill-opacity="0.75"/>
<path d="M943.601 30.6974C942.164 31.0826 941.311 32.56 941.696 33.9974C942.081 35.4348 943.559 36.2878 944.996 35.9026C946.433 35.5175 947.286 34.04 946.901 32.6026C946.516 31.1652 945.039 30.3123 943.601 30.6974Z" fill="white" fill-opacity="0.75"/>
<path d="M587.56 78.5007L591.706 77.3898L592.817 81.5358L594.506 81.0831L593.396 76.9372L597.541 75.8263L597.089 74.1369L592.943 75.2478L591.834 71.1109L590.145 71.5636L591.253 75.7004L587.107 76.8113L587.56 78.5007Z" fill="white" fill-opacity="0.75"/>
<path d="M895.561 171.501L899.707 170.39L900.818 174.536L902.507 174.083L901.397 169.937L905.542 168.826L905.09 167.137L900.944 168.248L899.835 164.111L898.146 164.564L899.254 168.7L895.108 169.811L895.561 171.501Z" fill="white" fill-opacity="0.75"/>
<path d="M1968.74 90.4792C1969.7 90.4792 1970.48 89.7004 1970.48 88.7396C1970.48 87.7789 1969.7 87.0001 1968.74 87.0001C1967.78 87.0001 1967 87.7789 1967 88.7396C1967 89.7004 1967.78 90.4792 1968.74 90.4792Z" fill="white" fill-opacity="0.75"/>
<path d="M2219.69 43.389C2221.18 43.389 2222.39 42.1827 2222.39 40.6946C2222.39 39.2064 2221.18 38.0001 2219.69 38.0001C2218.21 38.0001 2217 39.2064 2217 40.6946C2217 42.1827 2218.21 43.389 2219.69 43.389Z" fill="white" fill-opacity="0.75"/>
<path d="M1808.69 118.389C1810.18 118.389 1811.39 117.183 1811.39 115.695C1811.39 114.206 1810.18 113 1808.69 113C1807.21 113 1806 114.206 1806 115.695C1806 117.183 1807.21 118.389 1808.69 118.389Z" fill="white" fill-opacity="0.75"/>
<path d="M2061.92 49.8366C2065.18 49.8366 2067.83 47.1869 2067.83 43.9183C2067.83 40.6498 2065.18 38.0001 2061.92 38.0001C2058.65 38.0001 2056 40.6498 2056 43.9183C2056 47.1869 2058.65 49.8366 2061.92 49.8366Z" fill="black" fill-opacity="0.25"/>
<path d="M1850.92 74.8366C1854.19 74.8366 1856.84 72.1869 1856.84 68.9183C1856.84 65.6498 1854.19 63.0001 1850.92 63.0001C1847.65 63.0001 1845 65.6498 1845 68.9183C1845 72.1869 1847.65 74.8366 1850.92 74.8366Z" fill="black" fill-opacity="0.25"/>
<path d="M2213.92 102.837C2217.19 102.837 2219.84 100.187 2219.84 96.9183C2219.84 93.6498 2217.19 91.0001 2213.92 91.0001C2210.65 91.0001 2208 93.6498 2208 96.9183C2208 100.187 2210.65 102.837 2213.92 102.837Z" fill="black" fill-opacity="0.25"/>
<path d="M2115.82 91.6451C2118.48 91.6451 2120.64 89.4864 2120.64 86.8235C2120.64 84.1606 2118.48 82.0019 2115.82 82.0019C2113.15 82.0019 2110.99 84.1606 2110.99 86.8235C2110.99 89.4864 2113.15 91.6451 2115.82 91.6451Z" fill="white" fill-opacity="0.75"/>
<path d="M1693.82 53.6433C1696.48 53.6433 1698.64 51.4845 1698.64 48.8217C1698.64 46.1588 1696.48 44.0001 1693.82 44.0001C1691.16 44.0001 1689 46.1588 1689 48.8217C1689 51.4845 1691.16 53.6433 1693.82 53.6433Z" fill="white" fill-opacity="0.75"/>
<path d="M2130.6 23.6974C2129.16 24.0826 2128.31 25.56 2128.7 26.9974C2129.08 28.4348 2130.56 29.2878 2132 28.9026C2133.43 28.5175 2134.29 27.04 2133.9 25.6026C2133.52 24.1652 2132.04 23.3123 2130.6 23.6974Z" fill="white" fill-opacity="0.75"/>
<path d="M1937.6 43.6974C1936.16 44.0826 1935.31 45.56 1935.7 46.9974C1936.08 48.4348 1937.56 49.2878 1939 48.9026C1940.43 48.5175 1941.29 47.04 1940.9 45.6026C1940.52 44.1652 1939.04 43.3123 1937.6 43.6974Z" fill="white" fill-opacity="0.75"/>
<path d="M1937.6 140.697C1936.16 141.083 1935.31 142.56 1935.7 143.997C1936.08 145.435 1937.56 146.288 1939 145.903C1940.43 145.517 1941.29 144.04 1940.9 142.603C1940.52 141.165 1939.04 140.312 1937.6 140.697Z" fill="white" fill-opacity="0.75"/>
<path d="M1760.6 60.6974C1759.16 61.0826 1758.31 62.56 1758.7 63.9974C1759.08 65.4348 1760.56 66.2878 1762 65.9026C1763.43 65.5175 1764.29 64.04 1763.9 62.6026C1763.52 61.1652 1762.04 60.3123 1760.6 60.6974Z" fill="white" fill-opacity="0.75"/>
<path d="M2082.56 164.501L2086.71 163.39L2087.82 167.536L2089.51 167.083L2088.4 162.937L2092.54 161.826L2092.09 160.137L2087.94 161.248L2086.83 157.111L2085.14 157.564L2086.25 161.7L2082.11 162.811L2082.56 164.501Z" fill="white" fill-opacity="0.75"/>
<path d="M1823.56 28.5007L1827.71 27.3898L1828.82 31.5358L1830.51 31.0831L1829.4 26.9372L1833.54 25.8263L1833.09 24.1369L1828.94 25.2478L1827.84 21.1109L1826.15 21.5636L1827.25 25.7004L1823.11 26.8113L1823.56 28.5007Z" fill="white" fill-opacity="0.75"/>
<path d="M1630.92 55.8366C1634.19 55.8366 1636.84 53.1869 1636.84 49.9183C1636.84 46.6497 1634.19 44 1630.92 44C1627.65 44 1625 46.6497 1625 49.9183C1625 53.1869 1627.65 55.8366 1630.92 55.8366Z" fill="black" fill-opacity="0.25"/>
<path d="M1539.6 10.6974C1538.16 11.0825 1537.31 12.5599 1537.7 13.9973C1538.08 15.4347 1539.56 16.2877 1541 15.9026C1542.43 15.5174 1543.29 14.0399 1542.9 12.6026C1542.52 11.1652 1541.04 10.3122 1539.6 10.6974Z" fill="white" fill-opacity="0.75"/>
<path d="M1597.56 19.5007L1601.71 18.3898L1602.82 22.5357L1604.51 22.0831L1603.4 17.9371L1607.54 16.8262L1607.09 15.1368L1602.94 16.2477L1601.84 12.1109L1600.15 12.5636L1601.25 16.7004L1597.11 17.8113L1597.56 19.5007Z" fill="white" fill-opacity="0.75"/>
<path d="M1182.56 31.5007L1186.71 30.3898L1187.82 34.5358L1189.51 34.0831L1188.4 29.9372L1192.54 28.8263L1192.09 27.1369L1187.94 28.2478L1186.84 24.1109L1185.15 24.5636L1186.25 28.7004L1182.11 29.8113L1182.56 31.5007Z" fill="white" fill-opacity="0.75"/>
<path d="M195.716 41.5318C192.559 42.3778 190.685 45.623 191.531 48.7802C192.377 51.9374 195.622 53.811 198.78 52.965C201.937 52.1191 203.81 48.8739 202.964 45.7167C202.118 42.5595 198.873 40.6858 195.716 41.5318Z" fill="black" fill-opacity="0.25"/>
<path d="M18.3527 89.5156C19.9296 85.2039 22.4564 81.3022 25.7459 78.0997C29.0354 74.8971 33.0033 72.4756 37.3556 71.0147C37.4657 71.4257 37.6306 71.8219 37.7432 72.242C38.4375 74.8432 38.396 77.5862 37.6232 80.1653C36.8505 82.7444 35.3769 85.0582 33.3665 86.8491C31.3562 88.64 28.8881 89.8375 26.2372 90.3083C23.5863 90.7791 20.8568 90.5047 18.3527 89.5156V89.5156Z" fill="black" fill-opacity="0.25"/>
<path d="M370.601 82.6974C369.164 83.0825 368.311 84.56 368.696 85.9974C369.081 87.4348 370.559 88.2879 371.996 87.9027C373.433 87.5176 374.286 86.0401 373.901 84.6027C373.516 83.1653 372.039 82.3123 370.601 82.6974Z" fill="white" fill-opacity="0.75"/>
<path d="M1120.6 56.6974C1119.16 57.0825 1118.31 58.56 1118.7 59.9974C1119.08 61.4348 1120.56 62.2879 1122 61.9027C1123.43 61.5176 1124.29 60.0401 1123.9 58.6027C1123.52 57.1653 1122.04 56.3123 1120.6 56.6974Z" fill="white" fill-opacity="0.75"/>
<path d="M285.602 15.6974C284.165 16.0825 283.312 17.56 283.697 18.9974C284.082 20.4348 285.56 21.2879 286.997 20.9027C288.434 20.5176 289.287 19.0401 288.902 17.6027C288.517 16.1653 287.04 15.3123 285.602 15.6974Z" fill="white" fill-opacity="0.75"/>
<path d="M663.656 79.248C661.084 79.9372 659.558 82.581 660.247 85.1532C660.936 87.7254 663.58 89.2518 666.152 88.5626C668.724 87.8734 670.251 85.2295 669.562 82.6573C668.872 80.0852 666.229 78.5587 663.656 79.248Z" fill="white" fill-opacity="0.75"/>
<path d="M94.6574 57.248C92.0852 57.9372 90.5587 60.581 91.2479 63.1532C91.9371 65.7254 94.581 67.2518 97.1532 66.5626C99.7254 65.8734 101.252 63.2295 100.563 60.6573C99.8734 58.0852 97.2296 56.5587 94.6574 57.248Z" fill="white" fill-opacity="0.75"/>
</svg>
